<svg width="33" height="33" viewBox="0 0 33 33" fill="none" xmlns="http://www.w3.org/2000/svg">
<path d="M23.4439 27.885C22.0964 29.1913 20.6251 28.985 19.2089 28.3662C17.7101 27.7337 16.3351 27.7062 14.7539 28.3662C12.7739 29.2187 11.7289 28.9713 10.5464 27.885C3.83635 20.9688 4.82635 10.4362 12.4439 10.0512C14.3001 10.1475 15.5926 11.0687 16.6789 11.1512C18.3014 10.8212 19.8551 9.8725 21.5876 9.99625C23.6639 10.1612 25.2314 10.9862 26.2626 12.4712C21.9726 15.0425 22.9901 20.6938 26.9226 22.275C26.1389 24.3375 25.1214 26.3863 23.4301 27.8988L23.4439 27.885ZM16.5414 9.96875C16.3351 6.9025 18.8239 4.3725 21.6839 4.125C22.0826 7.6725 18.4664 10.3125 16.5414 9.96875Z" fill="#16433C"/>
</svg>
