<svg width="33" height="33" viewBox="0 0 33 33" fill="none" xmlns="http://www.w3.org/2000/svg">
<path d="M23.4438 27.885C22.0963 29.1913 20.625 28.985 19.2088 28.3662C17.71 27.7337 16.335 27.7062 14.7538 28.3662C12.7738 29.2187 11.7288 28.9713 10.5463 27.885C3.83626 20.9688 4.82626 10.4362 12.4438 10.0512C14.3 10.1475 15.5925 11.0687 16.6788 11.1512C18.3013 10.8212 19.855 9.8725 21.5875 9.99625C23.6638 10.1613 25.2313 10.9862 26.2625 12.4712C21.9725 15.0425 22.99 20.6938 26.9225 22.275C26.1388 24.3375 25.1213 26.3863 23.43 27.8988L23.4438 27.885ZM16.5413 9.96875C16.335 6.9025 18.8238 4.3725 21.6838 4.125C22.0825 7.6725 18.4663 10.3125 16.5413 9.96875Z" fill="#16433C"/>
</svg>
