<svg width="61" height="61" viewBox="0 0 61 61" fill="none" xmlns="http://www.w3.org/2000/svg">
<path d="M19.9531 34.0156C19.2578 34.0156 18.5781 33.8094 17.9999 33.4231C17.4218 33.0368 16.9712 32.4878 16.7051 31.8454C16.439 31.203 16.3694 30.4961 16.505 29.8141C16.6407 29.1322 16.9755 28.5057 17.4672 28.0141C17.9589 27.5224 18.5853 27.1876 19.2673 27.0519C19.9492 26.9163 20.6561 26.9859 21.2985 27.252C21.9409 27.5181 22.49 27.9687 22.8763 28.5468C23.2626 29.125 23.4687 29.8047 23.4687 30.5C23.4687 31.4324 23.0984 32.3266 22.439 32.9859C21.7797 33.6452 20.8855 34.0156 19.9531 34.0156ZM41.0469 26.9844C40.3515 26.9844 39.6718 27.1906 39.0937 27.5769C38.5156 27.9632 38.0649 28.5122 37.7989 29.1546C37.5328 29.797 37.4631 30.5039 37.5988 31.1859C37.7344 31.8678 38.0693 32.4943 38.5609 32.9859C39.0526 33.4776 39.679 33.8124 40.361 33.9481C41.043 34.0837 41.7498 34.0141 42.3922 33.748C43.0346 33.4819 43.5837 33.0313 43.97 32.4532C44.3563 31.875 44.5625 31.1953 44.5625 30.5C44.5625 29.5676 44.1921 28.6734 43.5328 28.0141C42.8735 27.3548 41.9793 26.9844 41.0469 26.9844ZM37.4521 40.2354C35.3647 41.5309 32.9568 42.2174 30.5 42.2174C28.0432 42.2174 25.6353 41.5309 23.5478 40.2354C23.0218 39.9036 22.3855 39.7943 21.779 39.9317C21.1724 40.0691 20.6453 40.4417 20.3135 40.9678C19.9817 41.4938 19.8725 42.1301 20.0098 42.7366C20.1472 43.3432 20.5199 43.8704 21.0459 44.2021C23.8823 45.9703 27.1576 46.9076 30.5 46.9076C33.8424 46.9076 37.1177 45.9703 39.9541 44.2021C40.4801 43.8704 40.8528 43.3432 40.9902 42.7366C41.1275 42.1301 41.0183 41.4938 40.6865 40.9678C40.3547 40.4417 39.8276 40.0691 39.221 39.9317C38.6145 39.7943 37.9782 39.9036 37.4521 40.2354ZM60.9687 30.5C60.9687 36.5261 59.1818 42.417 55.8338 47.4275C52.4859 52.4381 47.7273 56.3433 42.1599 58.6495C36.5924 60.9556 30.4662 61.5589 24.5558 60.3833C18.6455 59.2077 13.2165 56.3058 8.95534 52.0447C4.69421 47.7835 1.79234 42.3545 0.616697 36.4442C-0.558946 30.5338 0.0444365 24.4075 2.35054 18.8401C4.65665 13.2727 8.56191 8.51411 13.5725 5.16616C18.583 1.81821 24.4738 0.03125 30.5 0.03125C38.5782 0.0397807 46.3231 3.25261 52.0352 8.96476C57.7474 14.6769 60.9602 22.4218 60.9687 30.5ZM56.2812 30.5C56.2731 23.8632 53.709 17.4846 49.1215 12.6886C44.5339 7.89265 38.2754 5.04791 31.6455 4.74512C28.25 9.51758 28.1562 14.0586 28.1562 14.0938C28.1562 14.7154 28.4032 15.3115 28.8427 15.751C29.2823 16.1906 29.8784 16.4375 30.5 16.4375C31.1216 16.4375 31.7177 16.1906 32.1573 15.751C32.5968 15.3115 32.8437 14.7154 32.8437 14.0938C32.8437 13.4721 33.0907 12.876 33.5302 12.4365C33.9698 11.9969 34.5659 11.75 35.1875 11.75C35.8091 11.75 36.4052 11.9969 36.8448 12.4365C37.2843 12.876 37.5312 13.4721 37.5312 14.0938C37.5312 15.9586 36.7905 17.747 35.4718 19.0656C34.1532 20.3842 32.3648 21.125 30.5 21.125C28.6352 21.125 26.8468 20.3842 25.5282 19.0656C24.2095 17.747 23.4687 15.9586 23.4687 14.0938C23.4687 13.8799 23.5068 9.9043 25.9473 5.12012C21.1202 5.98615 16.6402 8.21099 13.0331 11.5336C9.42603 14.8561 6.84141 19.1386 5.58257 23.8784C4.32373 28.6183 4.44289 33.6188 5.92608 38.2933C7.40926 42.9678 10.1949 47.1223 13.9562 50.2693C17.7175 53.4163 22.2983 55.4252 27.1612 56.0603C32.024 56.6955 36.9671 55.9304 41.4105 53.855C45.8538 51.7796 49.6131 48.4799 52.2471 44.3431C54.8811 40.2064 56.2805 35.4042 56.2812 30.5Z" fill="#F1E8D9"/>
</svg>
