<svg width="94" height="94" viewBox="0 0 94 94" fill="none" xmlns="http://www.w3.org/2000/svg">
<g filter="url(#filter0_dd_269_637)">
<rect x="29" y="25" width="50" height="50" rx="4" fill="white" shape-rendering="crispEdges"/>
<g filter="url(#filter1_d_269_637)">
<path d="M41.5001 62.5L43.2661 56.0807C42.1769 54.2022 41.6039 52.0709 41.6046 49.8875C41.6074 43.057 47.1909 37.5 54.0523 37.5C57.382 37.5016 60.5072 38.7916 62.8576 41.1332C65.2074 43.4748 66.5013 46.5872 66.5001 49.8975C66.4971 56.7276 60.9126 62.2855 54.0523 62.2855C51.9693 62.2847 49.917 61.7645 48.0988 60.7774L41.5001 62.5Z" fill="url(#paint0_linear_269_637)"/>
</g>
<path fill-rule="evenodd" clip-rule="evenodd" d="M50.9102 44.672C50.6782 44.1591 50.4342 44.1487 50.2139 44.1397C50.0334 44.1321 49.827 44.1326 49.6208 44.1326C49.4143 44.1326 49.0792 44.2097 48.7957 44.518C48.512 44.8263 47.7125 45.5714 47.7125 47.0872C47.7125 48.6029 48.8215 50.0674 48.9759 50.2731C49.1307 50.4787 51.1166 53.6884 54.262 54.9231C56.8759 55.9493 57.4077 55.7452 57.9753 55.6939C58.5426 55.6427 59.806 54.9488 60.0637 54.2295C60.3217 53.5101 60.3217 52.8938 60.2444 52.765C60.167 52.6364 59.9608 52.5595 59.6511 52.4054C59.3417 52.2514 57.8203 51.506 57.5367 51.4033C57.253 51.3005 57.0468 51.2492 56.8404 51.5575C56.6342 51.8658 56.0415 52.5595 55.8609 52.765C55.6804 52.9707 55.4999 52.9964 55.1903 52.8423C54.8809 52.6878 53.8842 52.3629 52.702 51.3134C51.782 50.4969 51.1611 49.4885 50.9804 49.1802C50.8 48.8719 50.9612 48.7052 51.1164 48.5516C51.2553 48.4136 51.4258 48.1919 51.5807 48.012C51.735 47.8321 51.7867 47.7037 51.8897 47.4984C51.9929 47.2927 51.9414 47.1128 51.8639 46.9588C51.7867 46.8048 51.1852 45.2812 50.9102 44.672" fill="white"/>
</g>
<defs>
<filter id="filter0_dd_269_637" x="0" y="0" width="94" height="94" filterUnits="userSpaceOnUse" color-interpolation-filters="sRGB">
<feFlood flood-opacity="0" result="BackgroundImageFix"/>
<feColorMatrix in="SourceAlpha" type="matrix" values="0 0 0 0 0 0 0 0 0 0 0 0 0 0 0 0 0 0 127 0" result="hardAlpha"/>
<feOffset dx="-7" dy="-3"/>
<feGaussianBlur stdDeviation="11"/>
<feComposite in2="hardAlpha" operator="out"/>
<feColorMatrix type="matrix" values="0 0 0 0 0 0 0 0 0 0 0 0 0 0 0 0 0 0 0.25 0"/>
<feBlend mode="normal" in2="BackgroundImageFix" result="effect1_dropShadow_269_637"/>
<feColorMatrix in="SourceAlpha" type="matrix" values="0 0 0 0 0 0 0 0 0 0 0 0 0 0 0 0 0 0 127 0" result="hardAlpha"/>
<feOffset dy="4"/>
<feGaussianBlur stdDeviation="2"/>
<feComposite in2="hardAlpha" operator="out"/>
<feColorMatrix type="matrix" values="0 0 0 0 0 0 0 0 0 0 0 0 0 0 0 0 0 0 0.25 0"/>
<feBlend mode="normal" in2="effect1_dropShadow_269_637" result="effect2_dropShadow_269_637"/>
<feBlend mode="normal" in="SourceGraphic" in2="effect2_dropShadow_269_637" result="shape"/>
</filter>
<filter id="filter1_d_269_637" x="41.5001" y="37.5" width="25" height="25" filterUnits="userSpaceOnUse" color-interpolation-filters="sRGB">
<feFlood flood-opacity="0" result="BackgroundImageFix"/>
<feColorMatrix in="SourceAlpha" type="matrix" values="0 0 0 0 0 0 0 0 0 0 0 0 0 0 0 0 0 0 127 0" result="hardAlpha"/>
<feOffset/>
<feComposite in2="hardAlpha" operator="out"/>
<feColorMatrix type="matrix" values="0 0 0 0 0 0 0 0 0 0 0 0 0 0 0 0 0 0 0.25 0"/>
<feBlend mode="normal" in2="BackgroundImageFix" result="effect1_dropShadow_269_637"/>
<feBlend mode="normal" in="SourceGraphic" in2="effect1_dropShadow_269_637" result="shape"/>
</filter>
<linearGradient id="paint0_linear_269_637" x1="54.0641" y1="40.0127" x2="54.0641" y2="60.1146" gradientUnits="userSpaceOnUse">
<stop stop-color="#57D163"/>
<stop offset="1" stop-color="#23B33A"/>
</linearGradient>
</defs>
</svg>
