<svg width="426" height="94" viewBox="0 0 426 94" fill="none" xmlns="http://www.w3.org/2000/svg">
<g filter="url(#filter0_dd_256_637)">
<rect x="29" y="25" width="382" height="50" rx="4" fill="white" shape-rendering="crispEdges"/>
<g filter="url(#filter1_d_256_637)">
<path d="M41.5001 62.5L43.2661 56.0807C42.1769 54.2022 41.6039 52.0709 41.6046 49.8875C41.6074 43.057 47.1909 37.5 54.0523 37.5C57.382 37.5016 60.5072 38.7916 62.8576 41.1332C65.2074 43.4748 66.5013 46.5872 66.5001 49.8975C66.4971 56.7276 60.9126 62.2855 54.0523 62.2855C51.9693 62.2847 49.917 61.7645 48.0988 60.7774L41.5001 62.5Z" fill="url(#paint0_linear_256_637)"/>
</g>
<path fill-rule="evenodd" clip-rule="evenodd" d="M50.9101 44.672C50.6782 44.1591 50.4342 44.1487 50.2138 44.1397C50.0334 44.1321 49.8269 44.1326 49.6207 44.1326C49.4143 44.1326 49.0791 44.2097 48.7957 44.518C48.512 44.8263 47.7125 45.5714 47.7125 47.0872C47.7125 48.6029 48.8214 50.0674 48.9759 50.2731C49.1306 50.4787 51.1166 53.6884 54.262 54.9231C56.8758 55.9493 57.4077 55.7452 57.9753 55.6939C58.5426 55.6427 59.806 54.9488 60.0637 54.2295C60.3216 53.5101 60.3216 52.8938 60.2444 52.765C60.1669 52.6364 59.9607 52.5595 59.6511 52.4054C59.3417 52.2514 57.8203 51.506 57.5366 51.4033C57.253 51.3005 57.0468 51.2492 56.8403 51.5575C56.6341 51.8658 56.0415 52.5595 55.8608 52.765C55.6804 52.9707 55.4999 52.9964 55.1903 52.8423C54.8808 52.6878 53.8842 52.3629 52.7019 51.3134C51.782 50.4969 51.1611 49.4885 50.9804 49.1802C50.8 48.8719 50.9612 48.7052 51.1163 48.5516C51.2553 48.4136 51.4257 48.1919 51.5807 48.012C51.7349 47.8321 51.7867 47.7037 51.8896 47.4984C51.9929 47.2927 51.9414 47.1128 51.8639 46.9588C51.7867 46.8048 51.1852 45.2812 50.9101 44.672" fill="white"/>
<path d="M90.4189 41.264V39.2H79.6669V41.264H83.8909V56H86.1949V41.264H90.4189ZM100.366 56V48.704C100.366 45.608 99.0943 43.712 95.6143 43.712C93.9583 43.712 92.1343 44.24 90.8863 44.84L91.5343 46.664C92.4943 46.136 93.9583 45.608 95.3503 45.608C97.3183 45.608 98.1823 46.664 98.1823 48.488V48.92C97.1503 48.704 96.3823 48.656 95.7823 48.656C93.1423 48.656 90.4303 49.592 90.4303 52.64C90.4303 55.208 92.4703 56.288 94.6783 56.288C96.2143 56.288 97.2943 55.832 98.2783 54.728V56H100.366ZM98.1823 53.024C97.2223 53.84 96.1663 54.464 94.9423 54.464C93.6703 54.464 92.5663 53.936 92.5663 52.472C92.5663 50.672 94.5343 50.312 96.0223 50.312C96.6223 50.312 97.2943 50.36 98.1823 50.552V53.024ZM105.86 38H103.676V56H105.86V38ZM119.487 56L114.879 48.896L119.079 44H116.391L111.543 50.024L111.495 50V38H109.311V56H111.495V52.832L113.391 50.624L116.823 56H119.487ZM132.151 45.92V44H128.791V41.12H126.607V44H124.999V45.92H126.607V51.872C126.607 52.808 126.703 53.696 126.991 54.368C127.495 55.496 128.527 56.24 130.207 56.24C130.999 56.24 131.839 56.024 132.439 55.712L131.839 53.96C131.455 54.152 130.975 54.296 130.495 54.296C129.295 54.296 128.887 53.552 128.815 52.28C128.791 51.92 128.791 51.656 128.791 51.344V45.92H132.151ZM139.32 43.712C135.816 43.712 133.2 46.496 133.2 50C133.2 53.504 135.816 56.288 139.32 56.288C142.824 56.288 145.44 53.504 145.44 50C145.44 46.496 142.824 43.712 139.32 43.712ZM143.208 50C143.208 52.328 141.576 54.272 139.32 54.272C137.064 54.272 135.432 52.328 135.432 50C135.432 47.672 137.064 45.728 139.32 45.728C141.576 45.728 143.208 47.672 143.208 50ZM151.434 44L155.826 55.64L153.93 60.656L155.85 61.4L162.594 44H160.218L157.026 53.096H156.978L153.858 44H151.434ZM169.279 43.712C165.775 43.712 163.159 46.496 163.159 50C163.159 53.504 165.775 56.288 169.279 56.288C172.783 56.288 175.399 53.504 175.399 50C175.399 46.496 172.783 43.712 169.279 43.712ZM173.167 50C173.167 52.328 171.535 54.272 169.279 54.272C167.023 54.272 165.391 52.328 165.391 50C165.391 47.672 167.023 45.728 169.279 45.728C171.535 45.728 173.167 47.672 173.167 50ZM186.169 56H188.353V44H186.169V51.968C185.305 53.312 183.985 54.272 182.593 54.272C181.537 54.272 180.889 53.888 180.505 53.312C179.929 52.448 179.881 51.176 179.881 50V44H177.697V50.24C177.697 52.064 177.961 53.672 178.777 54.776C179.473 55.712 180.577 56.288 182.257 56.288C183.865 56.288 185.281 55.448 186.169 54.032V56ZM194.004 44H191.82V56H194.004V47.96C194.748 46.664 195.636 45.944 196.86 45.944C197.316 45.944 197.628 46.016 197.988 46.184L198.396 43.856C197.94 43.76 197.604 43.712 197.1 43.712C195.804 43.712 194.724 44.696 194.004 45.992V44ZM212.398 45.032C211.438 44.168 210.07 43.712 208.702 43.712C206.71 43.712 204.838 44.864 204.838 47.288C204.838 49.448 206.686 50.144 208.27 50.768C209.47 51.248 210.574 51.68 210.574 52.616C210.574 53.864 209.59 54.464 208.414 54.464C207.454 54.464 206.59 54.032 205.798 53.192L204.262 54.416C205.198 55.64 206.758 56.288 208.39 56.288C210.646 56.288 212.734 55.208 212.734 52.52C212.734 50.432 210.79 49.544 209.23 48.944C208.078 48.488 206.926 48.032 206.926 47.12C206.926 46.184 207.622 45.536 208.726 45.536C209.542 45.536 210.55 45.944 211.102 46.424L212.398 45.032ZM217.682 38H215.498V56H217.682V48.032C218.546 46.688 219.866 45.728 221.258 45.728C222.314 45.728 222.962 46.112 223.346 46.688C223.922 47.552 223.97 48.824 223.97 50V56H226.154V49.76C226.154 47.936 225.89 46.328 225.074 45.224C224.378 44.288 223.274 43.712 221.594 43.712C219.986 43.712 218.57 44.552 217.682 45.968V38ZM234.589 43.712C231.085 43.712 228.469 46.496 228.469 50C228.469 53.504 231.085 56.288 234.589 56.288C238.093 56.288 240.709 53.504 240.709 50C240.709 46.496 238.093 43.712 234.589 43.712ZM238.477 50C238.477 52.328 236.845 54.272 234.589 54.272C232.333 54.272 230.701 52.328 230.701 50C230.701 47.672 232.333 45.728 234.589 45.728C236.845 45.728 238.477 47.672 238.477 50ZM243.151 44V62H245.335V54.704C246.295 55.688 247.687 56.288 249.103 56.288C252.775 56.288 255.151 53.192 255.151 50.024C255.151 46.496 252.607 43.712 249.151 43.712C247.711 43.712 246.199 44.36 245.335 45.608V44H243.151ZM245.335 48.008C245.935 46.52 247.567 45.728 248.863 45.728C251.359 45.728 252.919 47.744 252.919 49.976C252.919 52.04 251.599 54.272 248.815 54.272C247.567 54.272 246.151 53.624 245.335 52.448V48.008ZM257.598 44V62H259.782V54.704C260.742 55.688 262.134 56.288 263.55 56.288C267.222 56.288 269.598 53.192 269.598 50.024C269.598 46.496 267.054 43.712 263.598 43.712C262.158 43.712 260.646 44.36 259.782 45.608V44H257.598ZM259.782 48.008C260.382 46.52 262.014 45.728 263.31 45.728C265.806 45.728 267.366 47.744 267.366 49.976C267.366 52.04 266.046 54.272 263.262 54.272C262.014 54.272 260.598 53.624 259.782 52.448V48.008ZM274.23 56V44H272.046V56H274.23ZM274.23 41.648V39.2H272.046V41.648H274.23ZM277.681 44V56H279.865V48.032C280.729 46.688 282.049 45.728 283.441 45.728C284.497 45.728 285.145 46.112 285.529 46.688C286.105 47.552 286.153 48.824 286.153 50V56H288.337V49.76C288.337 47.936 288.073 46.328 287.257 45.224C286.561 44.288 285.457 43.712 283.777 43.712C282.169 43.712 280.753 44.552 279.865 45.968V44H277.681ZM302.651 44H300.467V45.32C299.507 44.336 298.091 43.712 296.699 43.712C293.027 43.712 290.651 46.712 290.651 49.856C290.651 53.312 293.219 56 296.627 56C298.067 56 299.603 55.376 300.467 54.104V55.76C300.467 58.328 298.619 59.312 296.555 59.312C295.043 59.312 293.243 58.664 292.139 57.872L291.299 59.744C292.739 60.8 294.755 61.328 296.603 61.328C298.859 61.328 300.947 60.56 302.027 58.472C302.459 57.632 302.651 56.576 302.651 55.328V44ZM300.467 51.752C299.843 53.192 298.211 53.984 296.915 53.984C294.467 53.984 292.883 52.064 292.883 49.904C292.883 47.864 294.203 45.728 296.987 45.728C298.211 45.728 299.627 46.376 300.467 47.552V51.752ZM320.606 56V48.704C320.606 45.608 319.334 43.712 315.854 43.712C314.198 43.712 312.374 44.24 311.126 44.84L311.774 46.664C312.734 46.136 314.198 45.608 315.59 45.608C317.558 45.608 318.422 46.664 318.422 48.488V48.92C317.39 48.704 316.622 48.656 316.022 48.656C313.382 48.656 310.67 49.592 310.67 52.64C310.67 55.208 312.71 56.288 314.918 56.288C316.454 56.288 317.534 55.832 318.518 54.728V56H320.606ZM318.422 53.024C317.462 53.84 316.406 54.464 315.182 54.464C313.91 54.464 312.806 53.936 312.806 52.472C312.806 50.672 314.774 50.312 316.262 50.312C316.862 50.312 317.534 50.36 318.422 50.552V53.024ZM331.068 45.032C330.108 44.168 328.74 43.712 327.372 43.712C325.38 43.712 323.508 44.864 323.508 47.288C323.508 49.448 325.356 50.144 326.94 50.768C328.14 51.248 329.244 51.68 329.244 52.616C329.244 53.864 328.26 54.464 327.084 54.464C326.124 54.464 325.26 54.032 324.468 53.192L322.932 54.416C323.868 55.64 325.428 56.288 327.06 56.288C329.316 56.288 331.404 55.208 331.404 52.52C331.404 50.432 329.46 49.544 327.9 48.944C326.748 48.488 325.596 48.032 325.596 47.12C325.596 46.184 326.292 45.536 327.396 45.536C328.212 45.536 329.22 45.944 329.772 46.424L331.068 45.032ZM341.32 45.032C340.36 44.168 338.992 43.712 337.624 43.712C335.632 43.712 333.76 44.864 333.76 47.288C333.76 49.448 335.608 50.144 337.192 50.768C338.392 51.248 339.496 51.68 339.496 52.616C339.496 53.864 338.512 54.464 337.336 54.464C336.376 54.464 335.512 54.032 334.72 53.192L333.184 54.416C334.12 55.64 335.68 56.288 337.312 56.288C339.568 56.288 341.656 55.208 341.656 52.52C341.656 50.432 339.712 49.544 338.152 48.944C337 48.488 335.848 48.032 335.848 47.12C335.848 46.184 336.544 45.536 337.648 45.536C338.464 45.536 339.472 45.944 340.024 46.424L341.32 45.032ZM346.604 56V44H344.42V56H346.604ZM346.604 41.648V39.2H344.42V41.648H346.604ZM357.207 45.032C356.247 44.168 354.879 43.712 353.511 43.712C351.519 43.712 349.647 44.864 349.647 47.288C349.647 49.448 351.495 50.144 353.079 50.768C354.279 51.248 355.383 51.68 355.383 52.616C355.383 53.864 354.399 54.464 353.223 54.464C352.263 54.464 351.399 54.032 350.607 53.192L349.071 54.416C350.007 55.64 351.567 56.288 353.199 56.288C355.455 56.288 357.543 55.208 357.543 52.52C357.543 50.432 355.599 49.544 354.039 48.944C352.887 48.488 351.735 48.032 351.735 47.12C351.735 46.184 352.431 45.536 353.535 45.536C354.351 45.536 355.359 45.944 355.911 46.424L357.207 45.032ZM365.971 45.92V44H362.611V41.12H360.427V44H358.819V45.92H360.427V51.872C360.427 52.808 360.523 53.696 360.811 54.368C361.315 55.496 362.347 56.24 364.027 56.24C364.819 56.24 365.659 56.024 366.259 55.712L365.659 53.96C365.275 54.152 364.795 54.296 364.315 54.296C363.115 54.296 362.707 53.552 362.635 52.28C362.611 51.92 362.611 51.656 362.611 51.344V45.92H365.971ZM377.244 56V48.704C377.244 45.608 375.972 43.712 372.492 43.712C370.836 43.712 369.012 44.24 367.764 44.84L368.412 46.664C369.372 46.136 370.836 45.608 372.228 45.608C374.196 45.608 375.06 46.664 375.06 48.488V48.92C374.028 48.704 373.26 48.656 372.66 48.656C370.02 48.656 367.308 49.592 367.308 52.64C367.308 55.208 369.348 56.288 371.556 56.288C373.092 56.288 374.172 55.832 375.156 54.728V56H377.244ZM375.06 53.024C374.1 53.84 373.044 54.464 371.82 54.464C370.548 54.464 369.444 53.936 369.444 52.472C369.444 50.672 371.412 50.312 372.9 50.312C373.5 50.312 374.172 50.36 375.06 50.552V53.024ZM380.554 44V56H382.738V48.032C383.602 46.688 384.922 45.728 386.314 45.728C387.37 45.728 388.018 46.112 388.402 46.688C388.978 47.552 389.026 48.824 389.026 50V56H391.21V49.76C391.21 47.936 390.946 46.328 390.13 45.224C389.434 44.288 388.33 43.712 386.65 43.712C385.042 43.712 383.626 44.552 382.738 45.968V44H380.554ZM400.196 45.92V44H396.836V41.12H394.652V44H393.044V45.92H394.652V51.872C394.652 52.808 394.748 53.696 395.036 54.368C395.54 55.496 396.572 56.24 398.252 56.24C399.044 56.24 399.884 56.024 400.484 55.712L399.884 53.96C399.5 54.152 399.02 54.296 398.54 54.296C397.34 54.296 396.932 53.552 396.86 52.28C396.836 51.92 396.836 51.656 396.836 51.344V45.92H400.196Z" fill="#16433C"/>
</g>
<defs>
<filter id="filter0_dd_256_637" x="0" y="0" width="426" height="94" filterUnits="userSpaceOnUse" color-interpolation-filters="sRGB">
<feFlood flood-opacity="0" result="BackgroundImageFix"/>
<feColorMatrix in="SourceAlpha" type="matrix" values="0 0 0 0 0 0 0 0 0 0 0 0 0 0 0 0 0 0 127 0" result="hardAlpha"/>
<feOffset dx="-7" dy="-3"/>
<feGaussianBlur stdDeviation="11"/>
<feComposite in2="hardAlpha" operator="out"/>
<feColorMatrix type="matrix" values="0 0 0 0 0 0 0 0 0 0 0 0 0 0 0 0 0 0 0.25 0"/>
<feBlend mode="normal" in2="BackgroundImageFix" result="effect1_dropShadow_256_637"/>
<feColorMatrix in="SourceAlpha" type="matrix" values="0 0 0 0 0 0 0 0 0 0 0 0 0 0 0 0 0 0 127 0" result="hardAlpha"/>
<feOffset dy="4"/>
<feGaussianBlur stdDeviation="2"/>
<feComposite in2="hardAlpha" operator="out"/>
<feColorMatrix type="matrix" values="0 0 0 0 0 0 0 0 0 0 0 0 0 0 0 0 0 0 0.25 0"/>
<feBlend mode="normal" in2="effect1_dropShadow_256_637" result="effect2_dropShadow_256_637"/>
<feBlend mode="normal" in="SourceGraphic" in2="effect2_dropShadow_256_637" result="shape"/>
</filter>
<filter id="filter1_d_256_637" x="41.5001" y="37.5" width="25" height="25" filterUnits="userSpaceOnUse" color-interpolation-filters="sRGB">
<feFlood flood-opacity="0" result="BackgroundImageFix"/>
<feColorMatrix in="SourceAlpha" type="matrix" values="0 0 0 0 0 0 0 0 0 0 0 0 0 0 0 0 0 0 127 0" result="hardAlpha"/>
<feOffset/>
<feComposite in2="hardAlpha" operator="out"/>
<feColorMatrix type="matrix" values="0 0 0 0 0 0 0 0 0 0 0 0 0 0 0 0 0 0 0.25 0"/>
<feBlend mode="normal" in2="BackgroundImageFix" result="effect1_dropShadow_256_637"/>
<feBlend mode="normal" in="SourceGraphic" in2="effect1_dropShadow_256_637" result="shape"/>
</filter>
<linearGradient id="paint0_linear_256_637" x1="54.0641" y1="40.0127" x2="54.0641" y2="60.1146" gradientUnits="userSpaceOnUse">
<stop stop-color="#57D163"/>
<stop offset="1" stop-color="#23B33A"/>
</linearGradient>
</defs>
</svg>
