<svg width="46" height="46" viewBox="0 0 46 46" fill="none" xmlns="http://www.w3.org/2000/svg">
<path d="M27.6463 27.5164C23.9572 34.1826 22.177 35.1554 23.3279 41.5381C26.2314 37.3269 29.0004 34.9884 27.6463 27.5164Z" fill="#9B9168"/>
<path d="M27.6008 18.2518C23.9117 24.9167 22.1315 25.8895 23.2823 32.2722C26.1855 28.061 28.9546 25.7239 27.6008 18.2518Z" fill="#9B9168"/>
<path d="M17.4685 22.5304C21.2491 29.1447 23.0425 30.0936 21.9793 36.4918C19.0184 32.3199 16.2168 30.0206 17.4685 22.5304Z" fill="#9B9168"/>
<path d="M17.3873 13.2659C21.1678 19.8802 22.9613 20.829 21.8981 27.2258C18.9371 23.0554 16.1357 20.7547 17.3873 13.2659Z" fill="#9B9168"/>
<path d="M27.5187 8.98596C23.8296 15.6522 22.0494 16.625 23.2004 23.0077C26.1037 18.7965 28.8729 16.4579 27.5187 8.98596Z" fill="#9B9168"/>
<path d="M17.3061 4C21.0866 10.6143 22.88 11.5632 21.8167 17.9599C18.8559 13.7895 16.0545 11.4902 17.3061 4Z" fill="#9B9168"/>
</svg>
