<svg width="168" height="76" viewBox="0 0 168 76" fill="none" xmlns="http://www.w3.org/2000/svg">
<g clip-path="url(#clip0_143_881)">
<path d="M67.4561 31.9702C62.4457 41.033 60.0279 42.3555 61.591 51.0328C65.5344 45.3077 69.2952 42.1285 67.4561 31.9702Z" fill="#C8934D"/>
<path d="M67.5185 44.5674C62.5081 53.6301 60.0903 54.9526 61.6532 63.6298C65.5963 57.9047 69.357 54.7255 67.5185 44.5674Z" fill="#C8934D"/>
<path d="M67.3937 19.3755C62.3833 28.4364 59.9655 29.7589 61.5284 38.4362C65.4715 32.7111 69.2325 29.5337 67.3937 19.3755Z" fill="#C8934D"/>
<path d="M53.624 25.1919C58.7586 34.1841 61.1944 35.4741 59.7504 44.1724C55.729 38.5008 51.924 35.3749 53.624 25.1919Z" fill="#C8934D"/>
<path d="M53.7389 37.7891C58.8735 46.7811 61.3092 48.0712 59.865 56.7676C55.8438 51.0978 52.0389 47.9719 53.7389 37.7891Z" fill="#C8934D"/>
<path d="M53.52 12.5972C58.6546 21.5893 61.0904 22.8793 59.6463 31.5757C55.6248 25.906 51.8201 22.7783 53.52 12.5972Z" fill="#C8934D"/>
<path d="M67.2788 6.77832C62.2684 15.8411 59.8506 17.1636 61.4138 25.8409C65.3571 20.1158 69.118 16.9364 67.2788 6.77832Z" fill="#C8934D"/>
<path d="M53.4101 0C58.5447 8.99213 60.9804 10.2822 59.5363 18.9785C55.515 13.3088 51.7102 10.1829 53.4101 0Z" fill="#C8934D"/>
<path d="M72.7605 60.4202H76.1573L76.4403 60.1376V42.9778L76.1573 42.6382H72.7605V40.0885H76.1573L76.4403 39.8061V38.2775C76.4403 26.7798 79.3842 22.3638 86.6872 22.3638C88.5555 22.3638 90.4237 22.7036 91.9523 23.3256V30.1212H91.669L88.5555 26.1576C87.4232 25.3657 86.5172 24.9114 84.9323 24.9114C81.8186 24.9114 80.4033 27.5163 80.4033 32.9532V39.8061L80.6864 40.0885H88.8951V42.6382H80.6864L80.4033 42.9778V60.1376L80.6864 60.4202H84.9323V62.9697H72.7605V60.4202Z" fill="#C8934D"/>
<path d="M128.524 60.42V62.9695H121.787L111.313 50.34L119.918 43.3173L116.635 40.3727V40.0883H127.901V40.2601L115.333 49.4909C116.522 50.7369 125.127 60.42 125.127 60.42H128.524ZM111.143 60.42H114.54V62.9695H103.218V60.42H106.614L106.897 60.1375V27.8559L103.104 26.0448V25.7606L110.521 22.1938L110.86 22.3636V60.1375L111.143 60.42Z" fill="#C8934D"/>
<path d="M146.864 48.9812C146.864 43.9412 144.655 41.052 141.712 41.052C138.768 41.052 136.673 43.1474 136.673 47.6224C136.673 52.4925 138.598 55.2673 141.769 55.2673C144.882 55.2673 146.864 53.3971 146.864 48.9812ZM136.39 65.5743C135.654 66.7631 135.088 68.2364 135.088 69.765C135.088 72.7668 137.126 74.013 140.297 74.013C144.203 74.013 149.525 72.0301 149.525 68.5761C149.525 66.6506 147.883 65.8014 144.316 65.8014H140.127C138.712 65.8014 137.466 65.744 136.39 65.5743ZM155.185 43.6569L149.807 43.1474C150.657 44.5634 151.053 46.2064 151.053 48.0174C151.053 54.0211 146.016 57.1928 141.202 57.1928C139.787 57.1928 138.542 56.9657 137.466 56.5134C136.843 57.3626 136.277 58.3816 136.277 59.4007C136.277 60.9867 137.296 61.7232 142.391 61.7232H143.864C150.487 61.7232 153.148 63.3663 153.148 66.8203C153.148 73.3336 145.958 75.9957 139.561 75.9957C134.635 75.9957 131.182 74.4653 131.182 71.1237C131.182 68.4634 133.333 66.9902 135.145 65.3471C133.446 64.8376 132.371 63.8758 132.371 61.8931C132.371 59.6278 134.579 57.5324 136.503 56.0592C133.843 54.6433 132.427 51.983 132.427 48.8667C132.427 42.468 137.296 39.1837 142.165 39.1837C144.94 39.1837 147.089 40.0882 148.619 41.6188L155.185 38.8994V43.6569Z" fill="#C8934D"/>
<path d="M26.891 60.4262V62.9759H15.2853V60.4262H18.9652L19.2483 60.1439V49.3828C19.2483 44.5126 18.2293 42.8141 14.04 42.8141C11.9453 42.8141 9.90732 43.1539 7.75588 43.6062V60.1439L8.03898 60.4262H11.7188V62.9759H0.113313V60.4262H3.50986L3.79296 60.1439V27.8623L0 26.0493V25.767L7.41614 22.1982L7.75588 22.3681V42.4745C11.0393 40.3791 13.6436 39.1883 15.8515 39.1883C20.9466 39.1883 23.2111 41.5681 23.2111 45.8161V60.1439L23.4941 60.4262H26.891Z" fill="#C8934D"/>
<path d="M43.6499 59.5197V52.3272C38.8376 52.6669 34.535 53.4589 34.535 57.2545C34.535 59.4625 36.0636 60.4815 38.2148 60.4815C39.97 60.4815 42.0646 60.0847 43.6499 59.5197ZM51.2924 60.3117V62.8613H43.6499V60.5388C40.9888 62.3518 38.6676 63.4262 36.1769 63.4262C32.8366 63.4262 30.5156 61.2182 30.5156 57.9893C30.5156 52.7795 36.0069 50.854 43.6499 50.5142V48.7587C43.6499 44.2854 42.6307 42.1328 38.4979 42.1328C35.8937 42.1328 33.9123 42.9821 31.9309 44.2854L31.1951 42.9248C33.7991 40.4344 36.4034 39.0737 40.0265 39.0737C44.6123 39.0737 47.6125 41.7359 47.6125 46.4934V60.0294L47.8955 60.3117H51.2924Z" fill="#C8934D"/>
<circle cx="161" cy="28" r="6.5" stroke="#C8934D"/>
<path d="M164.587 32L162.121 28.6456C163.076 28.4456 164.02 27.7792 164.02 26.4574C164.02 24.8468 162.554 24.2248 161.366 24.2248H159.055V32H160.122V28.7122H160.921L163.254 32H164.587ZM162.887 26.4907C162.887 27.3793 162.121 27.757 161.088 27.757H160.122V25.18H161.31C162.254 25.18 162.887 25.7021 162.887 26.4907Z" fill="#C8934D"/>
</g>
<defs>
<clipPath id="clip0_143_881">
<rect width="168" height="76" fill="white"/>
</clipPath>
</defs>
</svg>
