<svg width="34" height="33" viewBox="0 0 34 33" fill="none" xmlns="http://www.w3.org/2000/svg">
<path d="M3.59375 3.83433V29.1644C3.59392 29.2194 3.61031 29.273 3.64087 29.3187C3.67142 29.3644 3.71479 29.4 3.76552 29.4212C3.81625 29.4423 3.87209 29.448 3.92603 29.4375C3.97998 29.427 4.02964 29.4009 4.06877 29.3623L17.2578 16.5L4.06877 3.63645C4.02964 3.59787 3.97998 3.5717 3.92603 3.56122C3.87209 3.55075 3.81625 3.55643 3.76552 3.57756C3.71479 3.59869 3.67142 3.63433 3.64087 3.68001C3.61031 3.72569 3.59392 3.77937 3.59375 3.83433ZM22.7879 11.2149L6.25051 2.10376L6.2402 2.09796C5.95531 1.94327 5.68461 2.3287 5.91793 2.553L18.8814 14.9486L22.7879 11.2149ZM5.91922 30.447C5.68461 30.6713 5.95531 31.0567 6.24148 30.9021L6.2518 30.8963L22.7879 21.7852L18.8814 18.0501L5.91922 30.447ZM29.4639 14.8887L24.8459 12.3454L20.5037 16.5L24.8459 20.6527L29.4639 18.1113C30.7201 17.4172 30.7201 15.5828 29.4639 14.8887Z" fill="#16433C"/>
</svg>
