<svg width="34" height="33" viewBox="0 0 34 33" fill="none" xmlns="http://www.w3.org/2000/svg">
<path d="M4 3.77201V29.1021C4.00017 29.157 4.01656 29.2107 4.04712 29.2564C4.07767 29.3021 4.12104 29.3377 4.17177 29.3589C4.2225 29.38 4.27834 29.3857 4.33228 29.3752C4.38623 29.3647 4.43589 29.3385 4.47502 29.3L17.6641 16.4377L4.47502 3.57414C4.43589 3.53555 4.38623 3.50938 4.33228 3.49891C4.27834 3.48843 4.2225 3.49411 4.17177 3.51525C4.12104 3.53638 4.07767 3.57202 4.04712 3.61769C4.01656 3.66337 4.00017 3.71705 4 3.77201ZM23.1941 11.1525L6.65676 2.04144L6.64645 2.03564C6.36156 1.88095 6.09086 2.26638 6.32418 2.49068L19.2876 14.8863L23.1941 11.1525ZM6.32547 30.3847C6.09086 30.609 6.36156 30.9944 6.64773 30.8397L6.65805 30.8339L23.1941 21.7229L19.2876 17.9878L6.32547 30.3847ZM29.8702 14.8264L25.2521 12.283L20.9099 16.4377L25.2521 20.5904L29.8702 18.049C31.1264 17.3549 31.1264 15.5205 29.8702 14.8264Z" fill="#16433C"/>
</svg>
