<svg width="24" height="24" viewBox="0 0 24 24" fill="none" xmlns="http://www.w3.org/2000/svg">
<path d="M24 5.04299C23.1166 5.44452 22.1644 5.70838 21.1778 5.83458C22.1874 5.22655 22.9675 4.26288 23.3346 3.10418C22.3824 3.67779 21.327 4.07932 20.2141 4.30876C19.3078 3.32215 18.0344 2.74854 16.5889 2.74854C13.8929 2.74854 11.6902 4.95121 11.6902 7.67014C11.6902 8.0602 11.7361 8.43878 11.8164 8.79443C7.73231 8.58792 4.0956 6.62616 1.67495 3.65484C1.25048 4.3776 1.00956 5.22655 1.00956 6.12138C1.00956 7.83075 1.86998 9.34509 3.20077 10.2055C2.38623 10.2055 1.62906 9.97607 0.963671 9.6319V9.66632C0.963671 12.0526 2.66157 14.0487 4.91013 14.4961C4.18822 14.6937 3.43032 14.7212 2.69599 14.5765C3.00758 15.5544 3.61782 16.4102 4.44094 17.0234C5.26405 17.6366 6.25864 17.9765 7.2849 17.9952C5.54527 19.3724 3.38891 20.1168 1.17017 20.1061C0.780115 20.1061 0.390057 20.0831 0 20.0373C2.17973 21.4369 4.77247 22.2514 7.54876 22.2514C16.5889 22.2514 21.5564 14.7485 21.5564 8.24376C21.5564 8.02578 21.5564 7.81928 21.5449 7.60131C22.5086 6.91297 23.3346 6.04108 24 5.04299Z" fill="#16433C"/>
</svg>
