<svg width="30" height="30" viewBox="0 0 30 30" fill="none" xmlns="http://www.w3.org/2000/svg">
<g filter="url(#filter0_d_256_638)">
<path d="M2.50012 27.5L4.26612 21.0807C3.17691 19.2022 2.60387 17.0709 2.60457 14.8875C2.60736 8.05702 8.19095 2.5 15.0523 2.5C18.382 2.50162 21.5072 3.7916 23.8576 6.1332C26.2074 8.47479 27.5013 11.5872 27.5001 14.8975C27.4971 21.7276 21.9126 27.2855 15.0523 27.2855C12.9693 27.2847 10.917 26.7645 9.09877 25.7774L2.50012 27.5Z" fill="url(#paint0_linear_256_638)"/>
</g>
<path fill-rule="evenodd" clip-rule="evenodd" d="M11.9101 9.672C11.6782 9.15913 11.4342 9.14874 11.2138 9.13973C11.0334 9.13211 10.8269 9.13257 10.6207 9.13257C10.4143 9.13257 10.0791 9.2097 9.79569 9.51798C9.51202 9.82625 8.71249 10.5714 8.71249 12.0872C8.71249 13.6029 9.82144 15.0674 9.97591 15.2731C10.1306 15.4787 12.1166 18.6884 15.262 19.9231C17.8758 20.9493 18.4077 20.7452 18.9753 20.6939C19.5426 20.6427 20.806 19.9488 21.0637 19.2295C21.3216 18.5101 21.3216 17.8938 21.2444 17.765C21.1669 17.6364 20.9607 17.5595 20.6511 17.4054C20.3417 17.2514 18.8203 16.506 18.5366 16.4033C18.253 16.3005 18.0468 16.2492 17.8403 16.5575C17.6341 16.8658 17.0415 17.5595 16.8608 17.765C16.6804 17.9707 16.4999 17.9964 16.1903 17.8423C15.8808 17.6878 14.8842 17.3629 13.7019 16.3134C12.782 15.4969 12.1611 14.4885 11.9804 14.1802C11.8 13.8719 11.9612 13.7052 12.1163 13.5516C12.2553 13.4136 12.4257 13.1919 12.5807 13.012C12.7349 12.8321 12.7867 12.7037 12.8896 12.4984C12.9929 12.2927 12.9414 12.1128 12.8639 11.9588C12.7867 11.8048 12.1852 10.2812 11.9101 9.672" fill="white"/>
<defs>
<filter id="filter0_d_256_638" x="2.50012" y="2.5" width="25" height="25" filterUnits="userSpaceOnUse" color-interpolation-filters="sRGB">
<feFlood flood-opacity="0" result="BackgroundImageFix"/>
<feColorMatrix in="SourceAlpha" type="matrix" values="0 0 0 0 0 0 0 0 0 0 0 0 0 0 0 0 0 0 127 0" result="hardAlpha"/>
<feOffset/>
<feComposite in2="hardAlpha" operator="out"/>
<feColorMatrix type="matrix" values="0 0 0 0 0 0 0 0 0 0 0 0 0 0 0 0 0 0 0.25 0"/>
<feBlend mode="normal" in2="BackgroundImageFix" result="effect1_dropShadow_256_638"/>
<feBlend mode="normal" in="SourceGraphic" in2="effect1_dropShadow_256_638" result="shape"/>
</filter>
<linearGradient id="paint0_linear_256_638" x1="15.0641" y1="5.01273" x2="15.0641" y2="25.1146" gradientUnits="userSpaceOnUse">
<stop stop-color="#57D163"/>
<stop offset="1" stop-color="#23B33A"/>
</linearGradient>
</defs>
</svg>
