<svg width="24" height="24" viewBox="0 0 24 24" fill="none" xmlns="http://www.w3.org/2000/svg">
<path d="M12.2934 2.39941C12.9342 2.40301 14.5375 2.41861 16.2416 2.48702L16.8464 2.51342C18.5613 2.59382 20.275 2.73303 21.1259 2.96944C22.2599 3.28866 23.1504 4.21751 23.4516 5.39596C23.9316 7.26806 23.9916 10.9186 23.9988 11.8031L24 11.9855V12.1943C23.9916 13.0787 23.9316 16.7305 23.4516 18.6014C23.1468 19.7835 22.2551 20.7135 21.1259 21.0279C20.275 21.2644 18.5613 21.4036 16.8464 21.484L16.2416 21.5116C14.5375 21.5788 12.9342 21.5956 12.2934 21.598L12.0114 21.5992H11.7054C10.3493 21.5908 4.67783 21.5296 2.87294 21.0279C1.74009 20.7087 0.848442 19.7799 0.547228 18.6014C0.0672035 16.7293 0.00720036 13.0787 0 12.1943V11.8031C0.00720036 10.9186 0.0672035 7.26686 0.547228 5.39596C0.852043 4.21391 1.74369 3.28386 2.87414 2.97064C4.67783 2.46782 10.3505 2.40661 11.7066 2.39941H12.2934ZM9.59928 7.79968V16.2001L16.7996 11.9999L9.59928 7.79968Z" fill="#16433C"/>
</svg>
